<svg xmlns="http://www.w3.org/2000/svg" width="560" height="560" preserveAspectRatio="xMidYMid meet" version="1.0" viewBox="0 0 420 420"><metadata>Created by potrace 1.11, written by Peter Selinger 2001-2013</metadata><g fill="#000" stroke="none"><path d="M0 2100 l0 -2100 2100 0 2100 0 0 2100 0 2100 -2100 0 -2100 0 0 -2100z m1560 990 l0 -500 500 0 500 0 0 -500 0 -500 -500 0 -500 0 0 -495 0 -495 -500 0 -500 0 0 1495 0 1495 500 0 500 0 0 -500z m2090 -995 l0 -1495 -500 0 -500 0 0 1495 0 1495 500 0 500 0 0 -1495z" transform="translate(0.000000,420.000000) scale(0.100000,-0.100000)"/></g></svg>